# xmcd CD database file
#
# Track frame offsets:
#	150
#	33166
#	46953
#	78736
#	102857
#	132486
#	165876
#	186934
#	204482
#	233235
#
# Disc length: 3334 seconds
#
# Revision: 0
# Processed by: cddbd v1.5.1PL0 Copyright (c) Steve Scherf et al.
# Submitted via: CDex 1.51
#
DISCID=7d0d040a
DTITLE=Abby and Norm Group - Volume 1:The Book Of Norman
DYEAR=1998
DGENRE=Jazz
TTITLE0=JungleTune
TTITLE1=Giant Steps
TTITLE2=Hick Licks
TTITLE3=Know It
TTITLE4='Til Death Do Us Part
TTITLE5=Cytyc Thinprep 2000
TTITLE6=Devolution
TTITLE7=Buffy
TTITLE8=Old Blues
TTITLE9=Berklee Tune
EXTD=YEAR: 1998
EXTT0=
EXTT1=
EXTT2=
EXTT3=
EXTT4=
EXTT5=
EXTT6=
EXTT7=
EXTT8=
EXTT9=
PLAYORDER=
